<svg viewBox="0 0 120 120" xmlns="http://www.w3.org/2000/svg">
  <path d="M60 95C57.5 95 55.1 94.3 52.9 93C46.5 88.7 40.5 83.4 34.8 76.2C30.1 70.6 26.6 65 24.2 59.8C21.8 54.3 20.7 49.4 20.7 44.7C20.7 37.9 22.8 32 27 27.3C31.1 22.6 36.7 20 42.7 20C47.2 20 51.3 21.5 54.9 24.4C56.5 25.7 58 27.4 59.3 29.4C60.1 28.2 61.1 27 62.2 25.8C64.4 23.6 66.7 22 69.1 20.8C72.2 19.4 75.3 18.7 78.7 19C83.9 19.5 88.4 21.8 92.2 25.9C96.1 30.1 98 35.3 98 41.5C98 44.8 97.4 48.3 96.2 51.9C94.5 57.3 91.8 62.7 88.1 68.3C84.4 73.9 80.6 79 76.7 83.3C72.8 87.7 69.3 91.1 66.2 93.6C64.2 95.2 62.1 96 60 96V95ZM42.6 26.5C38.2 26.5 34.1 28.5 30.9 32.3C27.6 36.2 26 41 26 46.5C26 50.5 26.9 54.7 29 59.5C31.2 64.2 34.5 69.5 38.9 74.7C44.1 81.1 49.6 86.1 55.4 90C57.1 91.1 58.7 91.6 60 91.6C61.3 91.6 62.7 91.1 64.2 90.2C67.1 87.9 70.3 84.8 73.9 80.7C77.6 76.7 81.2 71.9 84.7 66.6C88.2 61.3 90.7 56.3 92.3 51.3C93.3 48.2 93.8 45.2 93.8 42.3C93.8 37.3 92.3 33.2 89.2 29.8C86.2 26.5 82.6 24.8 78.5 24.4C76 24.2 73.5 24.7 71.1 25.9C69.2 26.9 67.4 28.2 65.6 30C63.7 31.8 62.2 33.7 61 35.7C60.1 37.1 58.9 37.8 57.5 37.8C56.1 37.8 54.9 37.1 54 35.7C53.1 34.2 52 32.7 50.7 31.3C49.4 29.9 48 28.7 46.4 27.7C45.3 27 44 26.5 42.6 26.5ZM60 75.5C55.9 75.5 52.5 74 49.6 71C46.8 68 45.4 64.4 45.4 60.3C45.4 56.1 46.8 52.6 49.6 49.6C52.5 46.6 55.9 45.1 60 45.1C64.1 45.1 67.5 46.6 70.4 49.6C73.2 52.5 74.6 56 74.6 60.3C74.6 64.5 73.2 68 70.4 71C67.5 74 64.1 75.5 60 75.5ZM60 50.7C57.5 50.7 55.3 51.6 53.5 53.5C51.7 55.3 50.8 57.6 50.8 60.3C50.8 63 51.7 65.2 53.5 67.1C55.3 68.9 57.5 69.8 60 69.8C62.5 69.8 64.7 68.9 66.5 67.1C68.3 65.3 69.2 63 69.2 60.3C69.2 57.6 68.3 55.3 66.5 53.5C64.7 51.7 62.5 50.7 60 50.7Z" 
        fill="#FF5A5F"/>
</svg> 